/vscmnt/brussel_pixiu_data/_data_brussel/112/vsc11236/PredSimResults/SUBJ04opt3D/expIG/worker_07.mot
version=1
nRows=8
nColumns=50
inDegrees=yes
endheader
                time	         pelvis_tilt	         pelvis_list	     pelvis_rotation	           pelvis_tx	           pelvis_ty	           pelvis_tz	       hip_flexion_r	     hip_adduction_r	      hip_rotation_r	        knee_angle_r	       ankle_angle_r	         mtp_angle_r	       hip_flexion_l	     hip_adduction_l	      hip_rotation_l	        knee_angle_l	       ankle_angle_l	         mtp_angle_l	    lumbar_extension	      lumbar_bending	     lumbar_rotation	 ercspn_r/activation	 intobl_r/activation	 extobl_r/activation	    abd_r/activation	    add_r/activation	hamstrings_r/activation	bifemsh_r/activation	glut_max_r/activation	iliopsoas_r/activation	rect_fem_r/activation	  vasti_r/activation	gastroc_r/activation	 soleus_r/activation	tib_ant_r/activation	 ercspn_l/activation	 intobl_l/activation	 extobl_l/activation	    abd_l/activation	    add_l/activation	hamstrings_l/activation	bifemsh_l/activation	glut_max_l/activation	iliopsoas_l/activation	rect_fem_l/activation	  vasti_l/activation	gastroc_l/activation	 soleus_l/activation	tib_ant_l/activation	
          0.00000000	         -3.39909415	          0.42849931	          8.30896095	          0.00000000	          0.87503341	         -0.00794421	         32.18132872	         -3.35127944	         -8.72064982	        -11.45325195	          5.65777959	          0.24185750	        -14.10319839	         -0.57659421	         -6.77167301	         -9.49923054	          9.21573477	         28.78478533	        -13.38186991	         -2.39159005	         -9.02589762	          0.07116386	          0.22155619	          0.01424256	          0.01735900	          0.29403290	          0.06870826	          0.02893283	          0.01789047	          0.16969826	          0.02890395	          0.02590291	          0.01000377	          0.01000198	          0.36399680	          0.01791379	          0.01000005	          0.01000007	          0.04047527	          0.01000092	          0.02865301	          0.21306608	          0.01699933	          0.04701519	          0.01000111	          0.01000023	          0.28135730	          0.27369850	          0.01000002	
          0.01160804	         -3.46450793	          0.40461457	          8.11526660	          0.01739150	          0.87282990	         -0.00759586	         32.07670415	         -3.10641863	         -8.95123517	        -12.81866658	          5.34981588	          0.24842485	        -14.64367938	         -0.75877729	         -7.38540773	        -10.49517388	          8.51945812	         30.47103221	        -12.91323797	         -1.85569412	         -9.17413143	          0.05962807	          0.18564118	          0.01193382	          0.01454503	          0.34498259	          0.06365571	          0.02424343	          0.11736086	          0.14218929	          0.02421850	          0.04677364	          0.01424400	          0.01699933	          0.36307996	          0.08322469	          0.01000008	          0.01000009	          0.03391402	          0.01000146	          0.02400913	          0.17852751	          0.01424367	          0.03939830	          0.01000070	          0.01000030	          0.23574786	          0.25526163	          0.01000002	
          0.02321608	         -3.51268838	          0.32477875	          7.88999232	          0.03517497	          0.87071538	         -0.00722600	         31.77493412	         -2.88772737	         -8.96171308	        -14.16556978	          5.00326974	          0.22989135	        -15.05925858	         -1.02140344	         -8.01871517	        -11.78883178	          7.75969513	         32.14346593	        -12.40806475	         -1.24364886	         -9.28501724	          0.04996235	          0.15554808	          0.01000011	          0.06923457	          0.28905936	          0.06703671	          0.02031467	          0.10986557	          0.11913967	          0.02029259	          0.08521835	          0.01193536	          0.01424371	          0.41068841	          0.06973394	          0.01000003	          0.01000013	          0.02841639	          0.01000045	          0.02011804	          0.14958760	          0.01193471	          0.09110832	          0.01000035	          0.01000009	          0.19753191	          0.22917005	          0.01000003	
          0.03482412	         -3.54736108	          0.21064820	          7.62102303	          0.05309778	          0.86888313	         -0.00674014	         31.33278292	         -2.63439929	         -9.02250026	        -15.25650392	          4.47447665	          0.21460722	        -15.25384346	         -1.35468105	         -8.67639158	        -13.51370305	          6.88943492	         33.78908818	        -11.90113030	         -0.59236178	         -9.34546357	          0.05497721	          0.13033294	          0.01000012	          0.10530301	          0.24344727	          0.06732082	          0.01702243	          0.09205678	          0.09982652	          0.01700308	          0.16236051	          0.01000070	          0.01193476	          0.45534769	          0.07467897	          0.01000003	          0.01000009	          0.02380994	          0.01000036	          0.01685843	          0.12533880	          0.01000007	          0.07633941	          0.01000031	          0.01000007	          0.16551096	          0.19202049	          0.01000003	
          0.04643216	         -3.57023088	          0.06477922	          7.31502907	          0.07091424	          0.86752006	         -0.00613560	         30.82371475	         -2.34340344	         -9.13658519	        -16.24506844	          4.04705139	          0.18338188	        -15.14414396	         -1.77157528	         -9.35283982	        -15.77776064	          5.87563222	         35.33747452	        -11.42329318	          0.09416385	         -9.35452113	          0.04670992	          0.10920530	          0.01000020	          0.15465132	          0.22737028	          0.06808101	          0.01426368	          0.07713427	          0.08364412	          0.01424683	          0.24490539	          0.01000047	          0.01000025	          0.47690519	          0.12423399	          0.01000008	          0.01000008	          0.01995023	          0.01000084	          0.03042264	          0.10502081	          0.01000009	          0.06396448	          0.01000023	          0.01000014	          0.13868077	          0.16089298	          0.01000002	
          0.05804019	         -3.58398487	         -0.11901916	          6.98677475	          0.08840359	          0.86683579	         -0.00541520	         30.27413388	         -2.00317768	         -9.25095619	        -17.18788547	          3.90877423	          0.15161999	        -14.65796188	         -2.29749936	        -10.03462106	        -18.65313014	          4.65468225	         36.68587965	        -10.99728493	          0.81801894	         -9.32140990	          0.03913846	          0.09150256	          0.01000024	          0.19102418	          0.20285347	          0.06500459	          0.01195192	          0.07206345	          0.07008498	          0.01193739	          0.30998290	          0.01000189	          0.01033304	          0.47782474	          0.16168388	          0.01000018	          0.01000010	          0.01671620	          0.06425429	          0.06997426	          0.08799648	          0.01000008	          0.05359559	          0.01000012	          0.01000007	          0.11619990	          0.13481139	          0.01000003	
          0.06964823	         -3.59152577	         -0.32869346	          6.64346300	          0.10538670	          0.86699903	         -0.00459347	         29.67853320	         -1.61497381	         -9.31362576	        -18.04096306	          4.02429091	          0.12726902	        -13.75207326	         -2.93404572	        -10.73301018	        -22.16424349	          3.21004329	         37.56401786	        -10.64222170	          1.56171715	         -9.25101910	          0.03279421	          0.07666952	          0.01000027	          0.19974912	          0.21026008	          0.06968294	          0.01001611	          0.06038207	          0.05872385	          0.01000236	          0.34367595	          0.01000048	          0.01000025	          0.46059979	          0.17277506	          0.01000025	          0.01000009	          0.01400642	          0.16074896	          0.05863496	          0.07373189	          0.01000005	          0.04490755	          0.01000008	          0.01000003	          0.09736329	          0.11295776	          0.01181419	
          0.08125627	         -3.59461793	         -0.52860737	          6.28507390	          0.12180191	          0.86803119	         -0.00369794	         28.99412448	         -1.20866667	         -9.31793546	        -18.71145906	          4.33333275	          0.11451496	        -12.42277101	         -3.66025814	        -11.45754384	        -26.32606765	          1.71459697	         37.38999496	        -10.36650588	          2.28375746	         -9.14315734	          0.02747818	          0.06424100	          0.01000029	          0.20856627	          0.21713942	          0.07361293	          0.01000267	          0.05059482	          0.04920441	          0.01000021	          0.35929494	          0.01000087	          0.01000085	          0.42270549	          0.16849320	          0.01000023	          0.01000011	          0.01173591	          0.27740438	          0.04913115	          0.06177967	          0.01000004	          0.03762788	          0.01000009	          0.01000003	          0.08158020	          0.09464673	          0.06118270	
